<mxfile host="Electron" modified="2024-05-19T14:20:02.307Z" agent="Mozilla/5.0 (Windows NT 10.0; Win64; x64) AppleWebKit/537.36 (KHTML, like Gecko) draw.io/24.2.5 Chrome/120.0.6099.109 Electron/28.1.0 Safari/537.36" etag="Ug_W9yFWTwucJigUbPez" version="24.2.5" type="device">
  <diagram name="PÃ¡gina-1" id="KXJ2o6hY_I3bP7Kt23yu">
    <mxGraphModel dx="1566" dy="1171" grid="1" gridSize="10" guides="1" tooltips="1" connect="1" arrows="1" fold="1" page="1" pageScale="1" pageWidth="827" pageHeight="1169" math="0" shadow="0">
      <root>
        <mxCell id="0" />
        <mxCell id="1" parent="0" />
        <mxCell id="jdu7Fi4dcT9x5EX7FF3W-36" style="edgeStyle=orthogonalEdgeStyle;rounded=0;orthogonalLoop=1;jettySize=auto;html=1;" edge="1" parent="1" source="jdu7Fi4dcT9x5EX7FF3W-2" target="jdu7Fi4dcT9x5EX7FF3W-47">
          <mxGeometry relative="1" as="geometry">
            <mxPoint x="240" y="160" as="targetPoint" />
          </mxGeometry>
        </mxCell>
        <mxCell id="jdu7Fi4dcT9x5EX7FF3W-2" value="Inicio" style="strokeWidth=2;html=1;shape=mxgraph.flowchart.terminator;whiteSpace=wrap;" vertex="1" parent="1">
          <mxGeometry x="190" y="60" width="100" height="60" as="geometry" />
        </mxCell>
        <mxCell id="jdu7Fi4dcT9x5EX7FF3W-46" style="edgeStyle=orthogonalEdgeStyle;rounded=0;orthogonalLoop=1;jettySize=auto;html=1;" edge="1" source="jdu7Fi4dcT9x5EX7FF3W-47" target="jdu7Fi4dcT9x5EX7FF3W-49" parent="1">
          <mxGeometry relative="1" as="geometry" />
        </mxCell>
        <mxCell id="jdu7Fi4dcT9x5EX7FF3W-47" value="a_votoValido" style="html=1;strokeWidth=2;shape=manualInput;whiteSpace=wrap;rounded=1;size=26;arcSize=11;" vertex="1" parent="1">
          <mxGeometry x="189.69" y="160" width="100" height="60" as="geometry" />
        </mxCell>
        <mxCell id="jdu7Fi4dcT9x5EX7FF3W-48" style="edgeStyle=orthogonalEdgeStyle;rounded=0;orthogonalLoop=1;jettySize=auto;html=1;" edge="1" source="jdu7Fi4dcT9x5EX7FF3W-49" target="jdu7Fi4dcT9x5EX7FF3W-50" parent="1">
          <mxGeometry relative="1" as="geometry" />
        </mxCell>
        <mxCell id="jdu7Fi4dcT9x5EX7FF3W-49" value="a_votoNulo" style="html=1;strokeWidth=2;shape=manualInput;whiteSpace=wrap;rounded=1;size=26;arcSize=11;" vertex="1" parent="1">
          <mxGeometry x="189.69" y="250" width="100" height="60" as="geometry" />
        </mxCell>
        <mxCell id="jdu7Fi4dcT9x5EX7FF3W-60" style="edgeStyle=orthogonalEdgeStyle;rounded=0;orthogonalLoop=1;jettySize=auto;html=1;" edge="1" parent="1" source="jdu7Fi4dcT9x5EX7FF3W-50" target="jdu7Fi4dcT9x5EX7FF3W-54">
          <mxGeometry relative="1" as="geometry">
            <mxPoint x="240" y="530" as="targetPoint" />
          </mxGeometry>
        </mxCell>
        <mxCell id="jdu7Fi4dcT9x5EX7FF3W-50" value="a_votoBranco" style="html=1;strokeWidth=2;shape=manualInput;whiteSpace=wrap;rounded=1;size=26;arcSize=11;" vertex="1" parent="1">
          <mxGeometry x="189.69" y="340" width="100" height="60" as="geometry" />
        </mxCell>
        <mxCell id="jdu7Fi4dcT9x5EX7FF3W-53" style="edgeStyle=orthogonalEdgeStyle;rounded=0;orthogonalLoop=1;jettySize=auto;html=1;" edge="1" source="jdu7Fi4dcT9x5EX7FF3W-54" target="jdu7Fi4dcT9x5EX7FF3W-56" parent="1">
          <mxGeometry relative="1" as="geometry" />
        </mxCell>
        <mxCell id="jdu7Fi4dcT9x5EX7FF3W-54" value="b_votoValido" style="html=1;strokeWidth=2;shape=manualInput;whiteSpace=wrap;rounded=1;size=26;arcSize=11;" vertex="1" parent="1">
          <mxGeometry x="189.69" y="440" width="100" height="60" as="geometry" />
        </mxCell>
        <mxCell id="jdu7Fi4dcT9x5EX7FF3W-55" style="edgeStyle=orthogonalEdgeStyle;rounded=0;orthogonalLoop=1;jettySize=auto;html=1;" edge="1" source="jdu7Fi4dcT9x5EX7FF3W-56" target="jdu7Fi4dcT9x5EX7FF3W-57" parent="1">
          <mxGeometry relative="1" as="geometry" />
        </mxCell>
        <mxCell id="jdu7Fi4dcT9x5EX7FF3W-56" value="b_votoNulo" style="html=1;strokeWidth=2;shape=manualInput;whiteSpace=wrap;rounded=1;size=26;arcSize=11;" vertex="1" parent="1">
          <mxGeometry x="189.69" y="530" width="100" height="60" as="geometry" />
        </mxCell>
        <mxCell id="jdu7Fi4dcT9x5EX7FF3W-68" style="edgeStyle=orthogonalEdgeStyle;rounded=0;orthogonalLoop=1;jettySize=auto;html=1;" edge="1" parent="1" source="jdu7Fi4dcT9x5EX7FF3W-57" target="jdu7Fi4dcT9x5EX7FF3W-62">
          <mxGeometry relative="1" as="geometry">
            <mxPoint x="240" y="900" as="targetPoint" />
          </mxGeometry>
        </mxCell>
        <mxCell id="jdu7Fi4dcT9x5EX7FF3W-57" value="b_votoBranco" style="html=1;strokeWidth=2;shape=manualInput;whiteSpace=wrap;rounded=1;size=26;arcSize=11;" vertex="1" parent="1">
          <mxGeometry x="189.69" y="620" width="100" height="60" as="geometry" />
        </mxCell>
        <mxCell id="jdu7Fi4dcT9x5EX7FF3W-61" style="edgeStyle=orthogonalEdgeStyle;rounded=0;orthogonalLoop=1;jettySize=auto;html=1;" edge="1" source="jdu7Fi4dcT9x5EX7FF3W-62" target="jdu7Fi4dcT9x5EX7FF3W-64" parent="1">
          <mxGeometry relative="1" as="geometry" />
        </mxCell>
        <mxCell id="jdu7Fi4dcT9x5EX7FF3W-62" value="c_votoValido" style="html=1;strokeWidth=2;shape=manualInput;whiteSpace=wrap;rounded=1;size=26;arcSize=11;" vertex="1" parent="1">
          <mxGeometry x="190" y="710" width="100" height="60" as="geometry" />
        </mxCell>
        <mxCell id="jdu7Fi4dcT9x5EX7FF3W-63" style="edgeStyle=orthogonalEdgeStyle;rounded=0;orthogonalLoop=1;jettySize=auto;html=1;" edge="1" source="jdu7Fi4dcT9x5EX7FF3W-64" target="jdu7Fi4dcT9x5EX7FF3W-65" parent="1">
          <mxGeometry relative="1" as="geometry" />
        </mxCell>
        <mxCell id="jdu7Fi4dcT9x5EX7FF3W-64" value="c_votoNulo" style="html=1;strokeWidth=2;shape=manualInput;whiteSpace=wrap;rounded=1;size=26;arcSize=11;" vertex="1" parent="1">
          <mxGeometry x="190" y="800" width="100" height="60" as="geometry" />
        </mxCell>
        <mxCell id="jdu7Fi4dcT9x5EX7FF3W-75" style="edgeStyle=orthogonalEdgeStyle;rounded=0;orthogonalLoop=1;jettySize=auto;html=1;" edge="1" parent="1" source="jdu7Fi4dcT9x5EX7FF3W-65" target="jdu7Fi4dcT9x5EX7FF3W-69">
          <mxGeometry relative="1" as="geometry" />
        </mxCell>
        <mxCell id="jdu7Fi4dcT9x5EX7FF3W-65" value="c_votoBranco" style="html=1;strokeWidth=2;shape=manualInput;whiteSpace=wrap;rounded=1;size=26;arcSize=11;" vertex="1" parent="1">
          <mxGeometry x="190" y="890" width="100" height="60" as="geometry" />
        </mxCell>
        <mxCell id="jdu7Fi4dcT9x5EX7FF3W-76" style="edgeStyle=orthogonalEdgeStyle;rounded=0;orthogonalLoop=1;jettySize=auto;html=1;" edge="1" parent="1" source="jdu7Fi4dcT9x5EX7FF3W-69" target="jdu7Fi4dcT9x5EX7FF3W-72">
          <mxGeometry relative="1" as="geometry" />
        </mxCell>
        <mxCell id="jdu7Fi4dcT9x5EX7FF3W-69" value="totalA&lt;div&gt;= a_votoValido+&lt;/div&gt;&lt;div&gt;&lt;span style=&quot;background-color: initial;&quot;&gt;a_votoBranco+&lt;/span&gt;&lt;/div&gt;&lt;div&gt;&lt;span style=&quot;background-color: initial;&quot;&gt;a_votoNulo&lt;/span&gt;&lt;/div&gt;&lt;div&gt;&lt;span style=&quot;background-color: initial;&quot;&gt;&lt;br&gt;&lt;/span&gt;&lt;/div&gt;" style="rounded=1;whiteSpace=wrap;html=1;absoluteArcSize=1;arcSize=14;strokeWidth=2;" vertex="1" parent="1">
          <mxGeometry x="190" y="1000" width="100" height="80" as="geometry" />
        </mxCell>
        <mxCell id="jdu7Fi4dcT9x5EX7FF3W-77" style="edgeStyle=orthogonalEdgeStyle;rounded=0;orthogonalLoop=1;jettySize=auto;html=1;" edge="1" parent="1" source="jdu7Fi4dcT9x5EX7FF3W-72" target="jdu7Fi4dcT9x5EX7FF3W-73">
          <mxGeometry relative="1" as="geometry" />
        </mxCell>
        <mxCell id="jdu7Fi4dcT9x5EX7FF3W-72" value="totalB&lt;div&gt;= b_votoValido+&lt;/div&gt;&lt;div&gt;&lt;span style=&quot;background-color: initial;&quot;&gt;b_votoBranco+&lt;/span&gt;&lt;/div&gt;&lt;div&gt;&lt;span style=&quot;background-color: initial;&quot;&gt;b_votoNulo&lt;/span&gt;&lt;/div&gt;&lt;div&gt;&lt;span style=&quot;background-color: initial;&quot;&gt;&lt;br&gt;&lt;/span&gt;&lt;/div&gt;" style="rounded=1;whiteSpace=wrap;html=1;absoluteArcSize=1;arcSize=14;strokeWidth=2;" vertex="1" parent="1">
          <mxGeometry x="190" y="1120" width="100" height="80" as="geometry" />
        </mxCell>
        <mxCell id="jdu7Fi4dcT9x5EX7FF3W-79" style="edgeStyle=orthogonalEdgeStyle;rounded=0;orthogonalLoop=1;jettySize=auto;html=1;" edge="1" parent="1" source="jdu7Fi4dcT9x5EX7FF3W-73" target="jdu7Fi4dcT9x5EX7FF3W-74">
          <mxGeometry relative="1" as="geometry" />
        </mxCell>
        <mxCell id="jdu7Fi4dcT9x5EX7FF3W-73" value="totalC&lt;div&gt;= c_votoValido+&lt;/div&gt;&lt;div&gt;&lt;span style=&quot;background-color: initial;&quot;&gt;c_votoBranco+&lt;/span&gt;&lt;/div&gt;&lt;div&gt;&lt;span style=&quot;background-color: initial;&quot;&gt;c_votoNulo&lt;/span&gt;&lt;/div&gt;&lt;div&gt;&lt;span style=&quot;background-color: initial;&quot;&gt;&lt;br&gt;&lt;/span&gt;&lt;/div&gt;" style="rounded=1;whiteSpace=wrap;html=1;absoluteArcSize=1;arcSize=14;strokeWidth=2;" vertex="1" parent="1">
          <mxGeometry x="190" y="1240" width="100" height="80" as="geometry" />
        </mxCell>
        <mxCell id="jdu7Fi4dcT9x5EX7FF3W-101" style="edgeStyle=orthogonalEdgeStyle;rounded=0;orthogonalLoop=1;jettySize=auto;html=1;" edge="1" parent="1" source="jdu7Fi4dcT9x5EX7FF3W-74" target="jdu7Fi4dcT9x5EX7FF3W-88">
          <mxGeometry relative="1" as="geometry" />
        </mxCell>
        <mxCell id="jdu7Fi4dcT9x5EX7FF3W-74" value="totalEleitor&lt;div&gt;= totalA+totalB+totalC&lt;/div&gt;" style="rounded=1;whiteSpace=wrap;html=1;absoluteArcSize=1;arcSize=14;strokeWidth=2;" vertex="1" parent="1">
          <mxGeometry x="180" y="1360" width="120" height="80" as="geometry" />
        </mxCell>
        <mxCell id="jdu7Fi4dcT9x5EX7FF3W-108" style="edgeStyle=orthogonalEdgeStyle;rounded=0;orthogonalLoop=1;jettySize=auto;html=1;" edge="1" parent="1" source="jdu7Fi4dcT9x5EX7FF3W-83" target="jdu7Fi4dcT9x5EX7FF3W-90">
          <mxGeometry relative="1" as="geometry" />
        </mxCell>
        <mxCell id="jdu7Fi4dcT9x5EX7FF3W-83" value="a_valido_porce," style="strokeWidth=2;html=1;shape=mxgraph.flowchart.display;whiteSpace=wrap;" vertex="1" parent="1">
          <mxGeometry x="174.69" y="2950" width="130" height="90" as="geometry" />
        </mxCell>
        <mxCell id="jdu7Fi4dcT9x5EX7FF3W-107" style="edgeStyle=orthogonalEdgeStyle;rounded=0;orthogonalLoop=1;jettySize=auto;html=1;" edge="1" parent="1" source="jdu7Fi4dcT9x5EX7FF3W-84" target="jdu7Fi4dcT9x5EX7FF3W-89">
          <mxGeometry relative="1" as="geometry" />
        </mxCell>
        <mxCell id="jdu7Fi4dcT9x5EX7FF3W-84" value="a_valido_porcem = (a_votoValido*100)/totalEleitor" style="rounded=1;whiteSpace=wrap;html=1;absoluteArcSize=1;arcSize=14;strokeWidth=2;" vertex="1" parent="1">
          <mxGeometry x="144.9999999999999" y="1770" width="190" height="80" as="geometry" />
        </mxCell>
        <mxCell id="jdu7Fi4dcT9x5EX7FF3W-104" style="edgeStyle=orthogonalEdgeStyle;rounded=0;orthogonalLoop=1;jettySize=auto;html=1;" edge="1" parent="1" source="jdu7Fi4dcT9x5EX7FF3W-86" target="jdu7Fi4dcT9x5EX7FF3W-83">
          <mxGeometry relative="1" as="geometry" />
        </mxCell>
        <mxCell id="jdu7Fi4dcT9x5EX7FF3W-86" value="totalValido_porcem" style="strokeWidth=2;html=1;shape=mxgraph.flowchart.display;whiteSpace=wrap;" vertex="1" parent="1">
          <mxGeometry x="149.69" y="2820" width="180" height="90" as="geometry" />
        </mxCell>
        <mxCell id="jdu7Fi4dcT9x5EX7FF3W-106" style="edgeStyle=orthogonalEdgeStyle;rounded=0;orthogonalLoop=1;jettySize=auto;html=1;" edge="1" parent="1" source="jdu7Fi4dcT9x5EX7FF3W-87" target="jdu7Fi4dcT9x5EX7FF3W-84">
          <mxGeometry relative="1" as="geometry" />
        </mxCell>
        <mxCell id="jdu7Fi4dcT9x5EX7FF3W-87" value="totalValido_porcem = (totalValido&amp;nbsp;*100)/totalEleitor" style="rounded=1;whiteSpace=wrap;html=1;absoluteArcSize=1;arcSize=14;strokeWidth=2;" vertex="1" parent="1">
          <mxGeometry x="140" y="1640" width="200" height="80" as="geometry" />
        </mxCell>
        <mxCell id="jdu7Fi4dcT9x5EX7FF3W-102" style="edgeStyle=orthogonalEdgeStyle;rounded=0;orthogonalLoop=1;jettySize=auto;html=1;" edge="1" parent="1" source="jdu7Fi4dcT9x5EX7FF3W-88" target="jdu7Fi4dcT9x5EX7FF3W-87">
          <mxGeometry relative="1" as="geometry" />
        </mxCell>
        <mxCell id="jdu7Fi4dcT9x5EX7FF3W-88" value="totalValido = a_votoValido+b_votoValido+c&lt;span style=&quot;background-color: initial;&quot;&gt;_votoValido&lt;/span&gt;" style="rounded=1;whiteSpace=wrap;html=1;absoluteArcSize=1;arcSize=14;strokeWidth=2;" vertex="1" parent="1">
          <mxGeometry x="125.94" y="1490" width="227.5" height="80" as="geometry" />
        </mxCell>
        <mxCell id="jdu7Fi4dcT9x5EX7FF3W-109" style="edgeStyle=orthogonalEdgeStyle;rounded=0;orthogonalLoop=1;jettySize=auto;html=1;" edge="1" parent="1" source="jdu7Fi4dcT9x5EX7FF3W-89" target="jdu7Fi4dcT9x5EX7FF3W-92">
          <mxGeometry relative="1" as="geometry" />
        </mxCell>
        <mxCell id="jdu7Fi4dcT9x5EX7FF3W-89" value="b_valido_porcem = (b_votoValido*100)/totalEleitor" style="rounded=1;whiteSpace=wrap;html=1;absoluteArcSize=1;arcSize=14;strokeWidth=2;" vertex="1" parent="1">
          <mxGeometry x="144.68999999999988" y="1910" width="190" height="80" as="geometry" />
        </mxCell>
        <mxCell id="jdu7Fi4dcT9x5EX7FF3W-113" style="edgeStyle=orthogonalEdgeStyle;rounded=0;orthogonalLoop=1;jettySize=auto;html=1;" edge="1" parent="1" source="jdu7Fi4dcT9x5EX7FF3W-90" target="jdu7Fi4dcT9x5EX7FF3W-91">
          <mxGeometry relative="1" as="geometry" />
        </mxCell>
        <mxCell id="jdu7Fi4dcT9x5EX7FF3W-90" value="b_valido_porcem" style="strokeWidth=2;html=1;shape=mxgraph.flowchart.display;whiteSpace=wrap;" vertex="1" parent="1">
          <mxGeometry x="174.69" y="3080" width="130" height="90" as="geometry" />
        </mxCell>
        <mxCell id="jdu7Fi4dcT9x5EX7FF3W-115" style="edgeStyle=orthogonalEdgeStyle;rounded=0;orthogonalLoop=1;jettySize=auto;html=1;" edge="1" parent="1" source="jdu7Fi4dcT9x5EX7FF3W-91" target="jdu7Fi4dcT9x5EX7FF3W-114">
          <mxGeometry relative="1" as="geometry" />
        </mxCell>
        <mxCell id="jdu7Fi4dcT9x5EX7FF3W-91" value="c_valido_porcem" style="strokeWidth=2;html=1;shape=mxgraph.flowchart.display;whiteSpace=wrap;" vertex="1" parent="1">
          <mxGeometry x="174.69" y="3220" width="130" height="90" as="geometry" />
        </mxCell>
        <mxCell id="jdu7Fi4dcT9x5EX7FF3W-110" style="edgeStyle=orthogonalEdgeStyle;rounded=0;orthogonalLoop=1;jettySize=auto;html=1;" edge="1" parent="1" source="jdu7Fi4dcT9x5EX7FF3W-92" target="jdu7Fi4dcT9x5EX7FF3W-94">
          <mxGeometry relative="1" as="geometry" />
        </mxCell>
        <mxCell id="jdu7Fi4dcT9x5EX7FF3W-92" value="c_valido_porcem = (c_votoValido*100)/totalEleitor" style="rounded=1;whiteSpace=wrap;html=1;absoluteArcSize=1;arcSize=14;strokeWidth=2;" vertex="1" parent="1">
          <mxGeometry x="144.9999999999999" y="2040" width="190" height="80" as="geometry" />
        </mxCell>
        <mxCell id="jdu7Fi4dcT9x5EX7FF3W-112" style="edgeStyle=orthogonalEdgeStyle;rounded=0;orthogonalLoop=1;jettySize=auto;html=1;" edge="1" parent="1" source="jdu7Fi4dcT9x5EX7FF3W-93" target="jdu7Fi4dcT9x5EX7FF3W-98">
          <mxGeometry relative="1" as="geometry" />
        </mxCell>
        <mxCell id="jdu7Fi4dcT9x5EX7FF3W-93" value="totalNulo_porcem = (totalNulo*100)/totalEleitor" style="rounded=1;whiteSpace=wrap;html=1;absoluteArcSize=1;arcSize=14;strokeWidth=2;" vertex="1" parent="1">
          <mxGeometry x="139.69" y="2290" width="200" height="80" as="geometry" />
        </mxCell>
        <mxCell id="jdu7Fi4dcT9x5EX7FF3W-111" style="edgeStyle=orthogonalEdgeStyle;rounded=0;orthogonalLoop=1;jettySize=auto;html=1;" edge="1" parent="1" source="jdu7Fi4dcT9x5EX7FF3W-94" target="jdu7Fi4dcT9x5EX7FF3W-93">
          <mxGeometry relative="1" as="geometry" />
        </mxCell>
        <mxCell id="jdu7Fi4dcT9x5EX7FF3W-94" value="totalNulo = a_votoNulo+b_votoNulo+c&lt;span style=&quot;background-color: initial;&quot;&gt;_voto&lt;/span&gt;Nulo" style="rounded=1;whiteSpace=wrap;html=1;absoluteArcSize=1;arcSize=14;strokeWidth=2;" vertex="1" parent="1">
          <mxGeometry x="126.25" y="2170" width="227.5" height="80" as="geometry" />
        </mxCell>
        <mxCell id="jdu7Fi4dcT9x5EX7FF3W-118" style="edgeStyle=orthogonalEdgeStyle;rounded=0;orthogonalLoop=1;jettySize=auto;html=1;" edge="1" parent="1" source="jdu7Fi4dcT9x5EX7FF3W-98" target="jdu7Fi4dcT9x5EX7FF3W-117">
          <mxGeometry relative="1" as="geometry" />
        </mxCell>
        <mxCell id="jdu7Fi4dcT9x5EX7FF3W-98" value="totalBranco a_votoBranco+b_votoBranco+c&lt;span style=&quot;background-color: initial;&quot;&gt;_voto&lt;/span&gt;Branco" style="rounded=1;whiteSpace=wrap;html=1;absoluteArcSize=1;arcSize=14;strokeWidth=2;" vertex="1" parent="1">
          <mxGeometry x="117.96999999999989" y="2420" width="243.44" height="80" as="geometry" />
        </mxCell>
        <mxCell id="jdu7Fi4dcT9x5EX7FF3W-100" style="edgeStyle=orthogonalEdgeStyle;rounded=0;orthogonalLoop=1;jettySize=auto;html=1;" edge="1" parent="1" source="jdu7Fi4dcT9x5EX7FF3W-99" target="jdu7Fi4dcT9x5EX7FF3W-86">
          <mxGeometry relative="1" as="geometry" />
        </mxCell>
        <mxCell id="jdu7Fi4dcT9x5EX7FF3W-99" value="totalEleitor" style="strokeWidth=2;html=1;shape=mxgraph.flowchart.display;whiteSpace=wrap;" vertex="1" parent="1">
          <mxGeometry x="189.69" y="2710" width="100" height="60" as="geometry" />
        </mxCell>
        <mxCell id="jdu7Fi4dcT9x5EX7FF3W-119" style="edgeStyle=orthogonalEdgeStyle;rounded=0;orthogonalLoop=1;jettySize=auto;html=1;" edge="1" parent="1" source="jdu7Fi4dcT9x5EX7FF3W-114" target="jdu7Fi4dcT9x5EX7FF3W-116">
          <mxGeometry relative="1" as="geometry" />
        </mxCell>
        <mxCell id="jdu7Fi4dcT9x5EX7FF3W-114" value="totalNulo_porcem" style="strokeWidth=2;html=1;shape=mxgraph.flowchart.display;whiteSpace=wrap;" vertex="1" parent="1">
          <mxGeometry x="154.69" y="3370" width="170" height="90" as="geometry" />
        </mxCell>
        <mxCell id="jdu7Fi4dcT9x5EX7FF3W-122" style="edgeStyle=orthogonalEdgeStyle;rounded=0;orthogonalLoop=1;jettySize=auto;html=1;" edge="1" parent="1" source="jdu7Fi4dcT9x5EX7FF3W-116" target="jdu7Fi4dcT9x5EX7FF3W-121">
          <mxGeometry relative="1" as="geometry" />
        </mxCell>
        <mxCell id="jdu7Fi4dcT9x5EX7FF3W-116" value="totalBranco&amp;nbsp;_porcem" style="strokeWidth=2;html=1;shape=mxgraph.flowchart.display;whiteSpace=wrap;" vertex="1" parent="1">
          <mxGeometry x="154.69" y="3510" width="170" height="90" as="geometry" />
        </mxCell>
        <mxCell id="jdu7Fi4dcT9x5EX7FF3W-120" style="edgeStyle=orthogonalEdgeStyle;rounded=0;orthogonalLoop=1;jettySize=auto;html=1;" edge="1" parent="1" source="jdu7Fi4dcT9x5EX7FF3W-117" target="jdu7Fi4dcT9x5EX7FF3W-99">
          <mxGeometry relative="1" as="geometry" />
        </mxCell>
        <mxCell id="jdu7Fi4dcT9x5EX7FF3W-117" value="totalBranco&amp;nbsp;_porcem = (totalVotoBranco&amp;nbsp;&amp;nbsp;*100)/totalEleitor" style="rounded=1;whiteSpace=wrap;html=1;absoluteArcSize=1;arcSize=14;strokeWidth=2;" vertex="1" parent="1">
          <mxGeometry x="140" y="2560" width="200" height="80" as="geometry" />
        </mxCell>
        <mxCell id="jdu7Fi4dcT9x5EX7FF3W-121" value="Fim" style="strokeWidth=2;html=1;shape=mxgraph.flowchart.terminator;whiteSpace=wrap;" vertex="1" parent="1">
          <mxGeometry x="190" y="3650" width="100" height="60" as="geometry" />
        </mxCell>
      </root>
    </mxGraphModel>
  </diagram>
</mxfile>
